<svg version="1.1" viewBox="0.0 0.0 960.0 720.0" fill="none" stroke="none" stroke-linecap="square" stroke-miterlimit="10" xmlns:xlink="http://www.w3.org/1999/xlink" xmlns="http://www.w3.org/2000/svg"><clipPath id="p4.0"><path d="m0 0l960.0 0l0 720.0l-960.0 0l0 -720.0z" clip-rule="nonzero"/></clipPath><g clip-path="url(#p4.0)"><path fill="#ffffff" d="m0 0l960.0 0l0 720.0l-960.0 0z" fill-rule="evenodd"/><path fill="#000000" fill-opacity="0.0" d="m313.6823 299.52084l347.7552 0l0 80.78119l-347.7552 0z" fill-rule="evenodd"/><path fill="#1a9988" d="m326.9792 317.85645l12.96875 0l0 31.640625l20.25 0l0 10.34375l-33.21875 0l0 -41.984375zm38.77951 0l11.65625 0l0 7.9375l-11.65625 0l0 -7.9375zm0 11.5625l11.65625 0l0 30.421875l-11.65625 0l0 -30.421875zm15.6423645 0l12.140625 0l5.890625 19.28125l6.109375 -19.28125l11.765625 0l-12.90625 30.421875l-10.34375 0l-12.65625 -30.421875zm73.063965 18.109375l-23.375 0q0.3125 2.796875 1.515625 4.171875q1.6875 1.984375 4.40625 1.984375q1.71875 0 3.265625 -0.859375q0.953125 -0.546875 2.03125 -1.921875l11.484375 1.0625q-2.625 4.578125 -6.359375 6.578125q-3.71875 1.984375 -10.671875 1.984375q-6.046875 0 -9.515625 -1.703125q-3.46875 -1.703125 -5.75 -5.40625q-2.265625 -3.71875 -2.265625 -8.734375q0 -7.125 4.5625 -11.53125q4.578125 -4.421875 12.625 -4.421875q6.53125 0 10.3125 1.984375q3.78125 1.96875 5.75 5.734375q1.984375 3.75 1.984375 9.75l0 1.328125zm-11.859375 -5.59375q-0.34375 -3.375 -1.828125 -4.828125q-1.46875 -1.46875 -3.875 -1.46875q-2.78125 0 -4.4375 2.203125q-1.0625 1.375 -1.34375 4.09375l11.484375 0z" fill-rule="nonzero"/><path fill="#1a9988" d="m499.44678 359.84082l0 -3.84375q-2.890625 4.53125 -8.5 4.53125q-3.640625 0 -6.6875 -2.0q-3.046875 -2.015625 -4.734375 -5.609375q-1.671875 -3.59375 -1.671875 -8.25q0 -4.5625 1.515625 -8.265625q1.53125 -3.71875 4.5625 -5.6875q3.03125 -1.984375 6.78125 -1.984375q2.75 0 4.890625 1.171875q2.15625 1.15625 3.5 3.015625l0 -15.0625l5.140625 0l0 41.984375l-4.796875 0zm-16.296875 -15.171875q0 5.828125 2.46875 8.734375q2.46875 2.890625 5.8125 2.890625q3.375 0 5.734375 -2.765625q2.375 -2.765625 2.375 -8.4375q0 -6.25 -2.40625 -9.171875q-2.40625 -2.921875 -5.9375 -2.921875q-3.421875 0 -5.734375 2.8125q-2.3125 2.8125 -2.3125 8.859375zm50.01245 5.375l5.328125 0.65625q-1.265625 4.671875 -4.671875 7.25q-3.40625 2.578125 -8.703125 2.578125q-6.671875 0 -10.59375 -4.109375q-3.90625 -4.109375 -3.90625 -11.53125q0 -7.671875 3.953125 -11.90625q3.953125 -4.25 10.265625 -4.25q6.09375 0 9.953125 4.15625q3.875 4.15625 3.875 11.6875q0 0.453125 -0.03125 1.375l-22.6875 0q0.296875 5.015625 2.84375 7.6875q2.546875 2.65625 6.359375 2.65625q2.828125 0 4.828125 -1.484375q2.015625 -1.5 3.1875 -4.765625zm-16.921875 -8.328125l16.984375 0q-0.34375 -3.84375 -1.953125 -5.765625q-2.46875 -2.96875 -6.390625 -2.96875q-3.546875 0 -5.96875 2.375q-2.421875 2.375 -2.671875 6.359375zm28.715576 18.125l0 -30.421875l4.625 0l0 4.265625q1.421875 -2.234375 3.796875 -3.59375q2.390625 -1.359375 5.421875 -1.359375q3.375 0 5.53125 1.40625q2.171875 1.40625 3.0625 3.921875q3.609375 -5.328125 9.390625 -5.328125q4.53125 0 6.953125 2.515625q2.4375 2.5 2.4375 7.71875l0 20.875l-5.125 0l0 -19.15625q0 -3.09375 -0.5 -4.453125q-0.5 -1.359375 -1.828125 -2.1875q-1.3125 -0.84375 -3.078125 -0.84375q-3.21875 0 -5.34375 2.140625q-2.109375 2.125 -2.109375 6.828125l0 17.671875l-5.15625 0l0 -19.765625q0 -3.4375 -1.265625 -5.15625q-1.25 -1.71875 -4.125 -1.71875q-2.171875 0 -4.015625 1.15625q-1.84375 1.140625 -2.6875 3.34375q-0.828125 2.203125 -0.828125 6.359375l0 15.78125l-5.15625 0zm46.954834 -15.203125q0 -8.453125 4.6875 -12.515625q3.921875 -3.390625 9.5625 -3.390625q6.28125 0 10.25 4.109375q3.984375 4.109375 3.984375 11.359375q0 5.875 -1.765625 9.25q-1.75 3.359375 -5.125 5.21875q-3.359375 1.859375 -7.34375 1.859375q-6.375 0 -10.3125 -4.09375q-3.9375 -4.09375 -3.9375 -11.796875zm5.296875 0q0 5.84375 2.546875 8.75q2.546875 2.90625 6.40625 2.90625q3.84375 0 6.390625 -2.921875q2.546875 -2.921875 2.546875 -8.90625q0 -5.640625 -2.5625 -8.546875q-2.5625 -2.921875 -6.375 -2.921875q-3.859375 0 -6.40625 2.90625q-2.546875 2.890625 -2.546875 8.734375z" fill-rule="nonzero"/></g></svg>